<svg xmlns="http://www.w3.org/2000/svg" viewBox="0 0 53.12 53.54"><defs><style>.cls-1{opacity:0.3;}.cls-2{fill:#9dd19c;}</style></defs><title>Asset 5</title><g id="Layer_2" data-name="Layer 2"><g id="Layer_3" data-name="Layer 3"><g class="cls-1"><path class="cls-2" d="M26.53,52c2.62,0,7.84,4.33,14.09-3.68,5.07-6.51,6.94-12.91,1.67-14.78-4.23-1.5-5.63-6.66-8.86-10.32S21.61,19.94,19,22.88s-2.82,7.51-7.58,10.36C5.12,37,7.66,43,11.85,48.09,19.47,57.36,22.6,52,26.53,52Z"/><ellipse class="cls-2" cx="18.59" cy="7.44" rx="5.73" ry="7.46" transform="translate(-0.68 1.98) rotate(-6)"/><ellipse class="cls-2" cx="34.88" cy="7.39" rx="7.46" ry="5.73" transform="matrix(0.25, -0.97, 0.97, 0.25, 18.88, 39.25)"/><ellipse class="cls-2" cx="6.21" cy="19.94" rx="5.73" ry="7.46" transform="translate(-9.14 5.77) rotate(-30)"/><ellipse class="cls-2" cx="46.92" cy="19.94" rx="7.46" ry="5.73" transform="translate(6.19 50.6) rotate(-60)"/></g></g></g></svg>