<svg xmlns="http://www.w3.org/2000/svg" viewBox="0 0 131.64 42.78"><defs><style>.cls-1{fill:#231f20;}.cls-2{fill:#89d3e2;}</style></defs><title>Asset 3</title><g id="Layer_2" data-name="Layer 2"><g id="Layer_1-2" data-name="Layer 1"><path class="cls-1" d="M12.83,42.7a11.76,11.76,0,0,1-6.51-1.87,12.77,12.77,0,0,1-4.61-5.5A20.89,20.89,0,0,1,0,26.4a20.67,20.67,0,0,1,1.76-9,12.58,12.58,0,0,1,4.68-5.41,11.79,11.79,0,0,1,6.37-1.81,9.81,9.81,0,0,1,4.44.9,8.83,8.83,0,0,1,2.88,2.21,10.88,10.88,0,0,1,1.68,2.62h.27V0h8.75V42.18H22.18V37.11h-.37a10.54,10.54,0,0,1-1.73,2.61,8.82,8.82,0,0,1-2.91,2.13A10,10,0,0,1,12.83,42.7Zm2.78-7a5.58,5.58,0,0,0,4.91-2.56,11.89,11.89,0,0,0,1.74-6.79,11.63,11.63,0,0,0-1.73-6.74,5.61,5.61,0,0,0-4.92-2.5,5.56,5.56,0,0,0-4.95,2.56A11.92,11.92,0,0,0,9,26.36a12.11,12.11,0,0,0,1.71,6.75A5.54,5.54,0,0,0,15.61,35.71Z"/><path class="cls-1" d="M46,42.78a11.72,11.72,0,0,1-7.52-2.37q-3-2.37-3-7.06a8.45,8.45,0,0,1,1.67-5.57,9.61,9.61,0,0,1,4.37-3,24.89,24.89,0,0,1,5.84-1.23,44.34,44.34,0,0,0,5.89-.86q1.77-.45,1.77-2v-.12a3.82,3.82,0,0,0-1.22-3,5.14,5.14,0,0,0-3.47-1.07,6.2,6.2,0,0,0-3.77,1,4.88,4.88,0,0,0-1.86,2.61l-8.11-.65a10.78,10.78,0,0,1,4.5-6.86,15.75,15.75,0,0,1,9.28-2.54A19,19,0,0,1,57,11.25,10.83,10.83,0,0,1,62,14.72a9.48,9.48,0,0,1,1.89,6.12V42.18H55.54V37.79h-.25a9.15,9.15,0,0,1-3.45,3.6A11,11,0,0,1,46,42.78Zm1.51-6.06A6.77,6.77,0,0,0,52.29,35a5.36,5.36,0,0,0,1.86-4.17V27.52a5.13,5.13,0,0,1-1.6.61c-.72.18-1.49.34-2.31.47l-2.19.34a8.63,8.63,0,0,0-3.72,1.3,3.19,3.19,0,0,0-1.41,2.82,3.15,3.15,0,0,0,1.31,2.74A5.66,5.66,0,0,0,47.55,36.72Z"/><path class="cls-1" d="M96.14,16a8.68,8.68,0,0,0-3.27-4.24,9.32,9.32,0,0,0-5.54-1.62,9.51,9.51,0,0,0-5.51,1.6,8.69,8.69,0,0,0-3.3,4.4h-.37V10.55H69.78V42.18h8.78v-19A6,6,0,0,1,80,19a4.83,4.83,0,0,1,3.67-1.6,4.63,4.63,0,0,1,3.49,1.38,5.15,5.15,0,0,1,1.33,3.71V42.18H97V22.86C97,17.81,96.14,16,96.14,16Z"/><path d="M112.88,12.94a9.69,9.69,0,0,0-7.2-2.81,10.37,10.37,0,0,0-6,1.64,12.47,12.47,0,0,0-1.86,1.55,10.87,10.87,0,0,1,1.47,4.76,4.58,4.58,0,0,1,2.73-.72,4.86,4.86,0,0,1,3.5,1.32,5.17,5.17,0,0,1,1.4,4V42.18h8.76V20.91C115.65,17.47,114.72,14.82,112.88,12.94Z"/><path class="cls-2" d="M126.69,42.72a4.83,4.83,0,0,1-3.5-1.44,4.72,4.72,0,0,1-1.44-3.51,4.65,4.65,0,0,1,1.44-3.46,4.92,4.92,0,0,1,7,0,4.78,4.78,0,0,1,1.49,3.46,5,5,0,0,1-4.95,4.95Z"/></g></g></svg>