<svg xmlns="http://www.w3.org/2000/svg" viewBox="0 0 204.33 239.06"><defs><style>.cls-1{opacity:0.3;}.cls-2{fill:#81a564;}</style></defs><title>Asset 4</title><g id="Layer_2" data-name="Layer 2"><g id="Layer_3" data-name="Layer 3"><g class="cls-1"><path class="cls-2" d="M204.33,112.07q0,29.19-9.27,51.35t-25.24,36.44L201,239.06H158l-17.58-21.62a107.55,107.55,0,0,1-38.24,6.71q-29.08,0-52.21-13.21t-36.54-38.3Q0,147.55,0,112.07,0,76.39,13.42,51.35T50,13.16Q73.09,0,102.17,0t52.09,13.16q23.12,13.15,36.6,38.19T204.33,112.07ZM86.19,145.31h39.2l16.19,20.78a64.8,64.8,0,0,0,11.78-22.59q4.2-13.53,4.2-31.43,0-34.72-15.12-53T102.17,40.8Q77,40.8,61.9,59.07t-15.13,53q0,34.63,15.13,53t40.27,18.32a58.1,58.1,0,0,0,11.93-1.17Z"/></g></g></g></svg>