<?xml version="1.0" standalone="no"?>
<!DOCTYPE svg PUBLIC "-//W3C//DTD SVG 20010904//EN"
 "http://www.w3.org/TR/2001/REC-SVG-20010904/DTD/svg10.dtd">
<svg version="1.0" xmlns="http://www.w3.org/2000/svg"
 width="211.000000pt" height="211.000000pt" viewBox="0 0 211.000000 211.000000"
 preserveAspectRatio="xMidYMid meet">
<metadata>
Created by potrace 1.11, written by Peter Selinger 2001-2013
</metadata>
<g transform="translate(0.000000,211.000000) scale(0.100000,-0.100000)"
fill="#000000" stroke="none">
<path d="M610 1205 l0 -66 -30 16 c-39 20 -79 19 -117 -5 -47 -28 -67 -73 -67
-151 0 -56 4 -73 26 -107 44 -66 123 -79 176 -30 l22 21 0 -21 c0 -19 5 -22
45 -22 l45 0 0 215 0 215 -50 0 -50 0 0 -65z m-18 -132 c52 -60 12 -178 -53
-158 -29 9 -51 68 -43 111 10 56 65 82 96 47z"/>
<path d="M834 1156 c-33 -15 -74 -60 -74 -82 0 -20 84 -19 100 2 20 23 74 15
78 -12 3 -19 -3 -22 -55 -29 -66 -8 -108 -27 -123 -54 -15 -28 -12 -83 5 -108
31 -45 125 -54 167 -16 17 15 18 15 18 0 0 -13 10 -17 45 -17 l45 0 0 129 c0
114 -2 131 -20 154 -34 44 -125 59 -186 33z m106 -191 c0 -18 -44 -65 -60 -65
-16 0 -50 19 -50 28 1 18 20 35 51 42 51 12 59 11 59 -5z"/>
<path d="M1218 1150 c-23 -17 -28 -19 -28 -6 0 12 -11 16 -50 16 l-50 0 0
-160 0 -160 50 0 50 0 0 109 c0 102 2 111 22 125 28 20 33 20 52 0 13 -12 16
-39 16 -125 l0 -109 45 0 45 0 0 134 c0 125 -2 137 -23 161 -31 37 -93 44
-129 15z"/>
<path d="M1398 1154 c-32 -17 -31 -14 -18 -49 7 -19 15 -25 26 -21 8 3 24 1
35 -4 17 -10 19 -22 19 -125 l0 -115 50 0 50 0 0 125 c0 75 -5 134 -12 150
-23 50 -95 69 -150 39z"/>
<path d="M1630 920 c-24 -24 -24 -29 -4 -58 28 -41 94 -22 94 27 0 16 -38 51
-55 51 -8 0 -24 -9 -35 -20z"/>
</g>
</svg>
