<?xml version="1.0" standalone="no"?>
<!DOCTYPE svg PUBLIC "-//W3C//DTD SVG 20010904//EN"
 "http://www.w3.org/TR/2001/REC-SVG-20010904/DTD/svg10.dtd">
<svg version="1.0" xmlns="http://www.w3.org/2000/svg"
 width="2112.000000pt" height="2112.000000pt" viewBox="0 0 2112.000000 2112.000000"
 preserveAspectRatio="xMidYMid meet">
<metadata>
Created by potrace 1.11, written by Peter Selinger 2001-2013
</metadata>
<g transform="translate(0.000000,2112.000000) scale(0.100000,-0.100000)"
fill="#000000" stroke="none">
<path d="M3550 12734 c0 -690 -2 -1259 -5 -1264 -3 -4 1 -10 7 -13 9 -3 7 -7
-4 -12 -30 -12 -43 0 -87 86 -118 229 -291 428 -498 576 -77 55 -305 164 -373
178 -8 2 -16 4 -17 5 -2 2 -7 4 -13 5 -5 1 -11 3 -12 5 -2 1 -10 3 -18 5 -71
15 -106 23 -142 29 -13 2 -39 7 -58 11 -20 3 -79 8 -131 9 -53 2 -100 6 -106
9 -6 4 -13 4 -16 0 -4 -3 -46 -7 -94 -8 -48 -2 -113 -6 -143 -10 -30 -4 -68
-9 -85 -11 -50 -6 -189 -36 -200 -42 -5 -4 -14 -7 -20 -9 -5 -1 -21 -4 -35 -7
-27 -6 -68 -21 -117 -42 -17 -8 -38 -14 -46 -14 -9 0 -19 -4 -22 -10 -3 -5
-15 -10 -25 -10 -10 0 -20 -3 -22 -7 -1 -5 -38 -25 -82 -46 -119 -58 -221
-126 -369 -246 -31 -26 -200 -195 -225 -227 -62 -76 -134 -175 -171 -234 -48
-75 -147 -278 -180 -365 -13 -33 -27 -69 -31 -80 -13 -29 -57 -165 -66 -200
-10 -40 -11 -45 -14 -47 -1 -2 -3 -10 -5 -18 -1 -8 -13 -53 -25 -99 -12 -47
-23 -100 -26 -119 -2 -19 -6 -37 -9 -41 -2 -4 -7 -30 -10 -57 -3 -27 -8 -58
-10 -70 -6 -28 -16 -110 -19 -160 -2 -23 -6 -46 -9 -51 -8 -12 -1 -778 7 -823
3 -19 8 -53 11 -75 2 -22 6 -49 8 -60 3 -11 8 -42 12 -70 10 -66 14 -87 18
-105 3 -14 26 -120 32 -145 4 -23 26 -101 32 -115 3 -8 8 -26 10 -40 2 -13 9
-30 15 -37 6 -7 8 -13 5 -13 -9 0 76 -232 120 -330 9 -19 16 -35 15 -35 -1 0
11 -25 28 -55 16 -30 37 -72 47 -92 10 -21 21 -38 25 -38 5 0 8 -5 8 -11 0
-12 80 -133 92 -137 4 -2 8 -10 8 -18 0 -8 3 -14 8 -14 4 0 14 -11 22 -24 37
-60 182 -213 281 -297 110 -94 211 -169 229 -169 6 0 10 -3 10 -7 0 -5 10 -13
23 -19 12 -6 57 -29 99 -51 162 -86 407 -166 579 -188 136 -18 193 -21 348
-18 198 3 241 6 241 13 0 3 12 6 28 7 15 0 40 4 56 8 95 21 146 34 155 40 6 3
19 8 28 10 77 14 360 159 403 205 3 3 28 23 55 45 123 98 287 290 352 412 30
57 49 89 60 103 11 15 13 20 13 40 0 5 15 9 33 8 l34 -1 -1 -395 c-1 -216 2
-399 6 -405 9 -15 1376 -17 1381 -2 2 9 1 6729 -2 6748 -1 4 -316 7 -701 7
l-700 0 0 -1256z m-845 -1498 c98 -21 228 -65 233 -78 2 -4 12 -8 23 -8 10 0
19 -4 19 -10 0 -5 5 -10 11 -10 22 0 135 -86 200 -151 95 -97 169 -217 248
-399 22 -52 77 -216 87 -260 2 -11 6 -30 9 -42 3 -13 9 -48 15 -78 6 -30 12
-64 14 -76 22 -110 22 -626 1 -704 -2 -8 -7 -33 -10 -55 -15 -111 -64 -292
-105 -390 -39 -93 -116 -244 -153 -302 -40 -62 -176 -213 -191 -213 -7 0 -20
-10 -50 -37 -8 -7 -33 -22 -57 -35 -24 -12 -46 -25 -49 -28 -8 -10 -146 -59
-199 -71 -74 -17 -139 -23 -251 -23 -174 1 -292 27 -425 97 -130 68 -254 178
-330 293 -70 106 -157 291 -194 414 -1 3 -8 28 -17 55 -28 89 -51 189 -60 265
-4 25 -10 64 -14 88 -8 48 -6 564 3 597 3 12 8 48 12 80 8 67 8 65 30 155 9
36 18 72 20 80 2 8 11 35 20 60 9 25 17 50 19 55 13 44 70 172 108 243 56 106
92 157 157 225 58 60 170 147 190 147 6 0 11 3 11 8 0 4 15 13 33 21 17 8 50
22 72 32 45 20 133 46 183 53 19 2 36 6 38 8 6 7 316 1 349 -6z"/>
<path d="M7808 12375 c-2 -1 -32 -5 -68 -9 -126 -12 -156 -17 -280 -42 -116
-24 -318 -82 -365 -105 -12 -6 -27 -11 -35 -13 -40 -8 -327 -149 -382 -187
-14 -11 -29 -19 -32 -19 -4 0 -12 -5 -19 -10 -7 -6 -43 -33 -82 -61 -38 -28
-71 -55 -73 -60 -2 -5 -8 -9 -14 -9 -5 0 -53 -44 -106 -97 -91 -93 -200 -231
-252 -318 -28 -48 -122 -228 -122 -235 0 -3 -6 -20 -14 -39 -18 -43 -72 -226
-79 -268 -5 -29 -3 -33 17 -34 13 0 32 -2 43 -4 11 -2 58 -7 105 -10 47 -3
105 -7 130 -10 39 -3 100 -8 255 -20 97 -7 214 -17 255 -21 25 -3 79 -7 120
-9 41 -3 95 -7 118 -10 24 -2 87 -7 140 -10 53 -4 99 -8 102 -10 4 -2 12 13
19 33 23 63 80 175 109 212 29 37 146 156 159 162 4 2 26 14 48 28 22 14 42
23 44 22 2 -2 7 1 10 6 11 17 205 94 229 91 4 -1 9 0 12 1 39 15 130 22 265
22 165 0 256 -9 285 -27 6 -4 23 -9 38 -11 15 -3 40 -12 56 -20 16 -8 35 -14
43 -14 7 0 13 -3 13 -8 0 -4 15 -14 33 -22 17 -7 41 -22 51 -32 11 -10 24 -18
29 -18 5 0 21 -13 35 -29 54 -58 82 -91 82 -97 0 -3 9 -19 21 -35 26 -36 66
-151 75 -215 10 -69 7 -186 -6 -235 -13 -49 -48 -106 -81 -134 -51 -43 -148
-88 -214 -99 -61 -9 -100 -19 -119 -28 -12 -7 -16 -7 -12 0 3 6 -14 4 -40 -4
-25 -7 -49 -13 -52 -12 -4 1 -23 -2 -42 -5 -19 -4 -48 -9 -65 -11 -16 -3 -41
-7 -55 -10 -14 -2 -45 -7 -70 -10 -25 -3 -63 -8 -85 -11 -22 -4 -53 -8 -70
-10 -16 -2 -30 -4 -30 -5 0 -1 -57 -6 -155 -15 -25 -2 -70 -6 -100 -9 -30 -3
-80 -9 -110 -12 -30 -3 -68 -7 -85 -9 -16 -3 -46 -7 -65 -9 -58 -8 -112 -17
-180 -32 -36 -8 -74 -16 -85 -18 -73 -12 -282 -69 -426 -116 -79 -26 -313
-133 -329 -150 -3 -3 -29 -21 -57 -39 -29 -18 -53 -37 -53 -42 0 -5 -3 -8 -8
-7 -4 2 -14 -3 -22 -10 -201 -171 -285 -272 -371 -447 -120 -241 -158 -481
-134 -830 28 -384 147 -668 375 -893 43 -43 104 -95 137 -117 32 -22 60 -43
61 -47 2 -5 10 -8 18 -8 8 0 14 -4 14 -8 0 -5 16 -14 35 -22 19 -8 35 -17 35
-22 0 -4 6 -8 14 -8 7 0 19 -7 26 -15 7 -9 15 -13 18 -11 3 3 17 -3 32 -14 16
-11 34 -20 42 -20 8 0 18 -4 24 -9 11 -9 129 -57 194 -77 25 -8 59 -18 75 -24
41 -13 196 -48 215 -48 8 0 44 -5 80 -10 68 -11 538 -15 554 -5 5 4 21 7 35 8
59 5 123 16 149 26 15 6 28 10 30 9 19 -11 326 97 363 127 8 7 23 13 32 13 9
0 17 5 17 10 0 6 6 10 13 10 30 0 195 119 290 210 32 30 63 57 68 58 5 2 9 10
9 18 0 8 4 14 9 14 13 0 130 156 171 228 25 43 41 61 55 62 21 0 21 -4 20
-342 0 -189 1 -347 2 -353 2 -7 226 -9 651 -8 356 0 656 2 667 2 20 1 20 6 18
1814 0 996 -3 1830 -6 1852 -14 104 -20 133 -47 232 -25 88 -74 217 -96 251
-8 12 -12 22 -9 22 2 0 -13 29 -35 65 -22 36 -40 70 -40 75 0 6 -4 10 -8 10
-4 0 -16 15 -26 33 -11 17 -26 39 -35 48 -9 9 -36 40 -61 70 -25 29 -53 60
-63 69 -10 8 -38 34 -63 57 -53 51 -201 163 -213 163 -5 0 -11 3 -13 8 -13 28
-252 141 -428 202 -36 12 -72 25 -80 28 -8 3 -18 6 -22 7 -5 2 -9 3 -10 5 -2
1 -10 3 -18 5 -8 2 -42 11 -75 21 -33 9 -67 17 -75 19 -8 2 -44 10 -80 19 -78
18 -224 43 -300 51 -30 3 -68 8 -85 10 -32 6 -552 15 -557 10z m886 -3112 c-1
-170 -4 -326 -8 -348 -38 -229 -144 -415 -320 -564 -88 -73 -234 -154 -345
-191 -49 -16 -69 -22 -131 -37 -73 -18 -344 -25 -425 -11 -53 9 -95 17 -120
24 -31 9 -189 77 -195 84 -3 3 -22 16 -42 28 -44 27 -138 128 -138 148 0 8 -3
14 -8 14 -11 0 -46 85 -59 143 -9 41 -9 209 0 267 8 47 66 180 80 180 4 0 7 6
7 14 0 15 106 117 143 138 35 19 186 94 227 111 31 14 166 54 210 62 8 2 15 4
15 5 0 2 33 8 85 13 25 3 56 8 70 11 14 3 47 8 73 11 26 2 51 6 55 8 4 3 34 8
67 11 33 4 67 9 75 11 15 4 75 14 120 20 14 2 36 6 50 9 14 4 40 8 58 11 18 2
36 6 40 9 4 2 25 7 47 10 22 4 48 9 57 12 16 5 40 10 88 20 44 9 114 34 160
58 25 13 50 24 55 25 7 1 10 -107 9 -306z"/>
<path d="M13887 12364 c-1 -1 -29 -5 -62 -9 -181 -20 -330 -59 -473 -126 -35
-16 -66 -29 -69 -29 -2 0 -16 -9 -30 -20 -14 -11 -29 -18 -33 -15 -4 2 -15 -4
-25 -15 -10 -11 -22 -20 -27 -20 -11 0 -131 -90 -136 -102 -2 -4 -8 -8 -13 -8
-24 0 -258 -269 -259 -297 0 -7 -4 -13 -9 -13 -5 0 -35 -53 -66 -117 -31 -65
-61 -126 -66 -135 -5 -10 -9 -24 -9 -33 0 -15 -42 -31 -58 -21 -5 3 -9 193 -9
448 l0 443 -671 2 c-571 2 -671 0 -676 -12 -3 -8 -1 -17 4 -20 6 -3 6 -15 0
-30 -6 -15 -6 -27 0 -30 5 -3 6 -15 1 -28 -5 -12 -5 -34 0 -49 4 -16 4 -28 -1
-28 -5 0 -5 -13 0 -30 5 -17 5 -30 0 -30 -5 0 -5 -13 0 -30 5 -17 5 -30 0 -30
-5 0 -5 -13 0 -30 5 -19 5 -30 -1 -30 -6 0 -7 -4 -4 -10 8 -13 11 -108 3 -115
-3 -4 -2 -20 2 -36 5 -16 6 -29 2 -29 -8 0 -7 -68 1 -76 3 -3 2 -16 -3 -28 -4
-13 -4 -29 0 -36 5 -8 6 -18 3 -23 -8 -12 -7 -106 0 -114 4 -3 2 -13 -3 -22
-5 -10 -5 -23 0 -31 4 -7 4 -24 0 -36 -6 -14 -5 -26 0 -29 6 -3 6 -15 0 -30
-5 -14 -5 -27 0 -30 5 -3 5 -18 0 -35 -5 -17 -5 -30 0 -30 5 0 5 -13 0 -30 -5
-17 -5 -30 0 -30 5 0 5 -13 0 -30 -5 -16 -6 -30 -2 -30 8 0 7 -68 -1 -76 -3
-3 -2 -17 3 -30 6 -14 6 -26 0 -29 -5 -3 -6 -15 -1 -27 4 -12 5 -38 1 -59 -4
-21 -4 -43 1 -50 4 -7 4 -20 -1 -29 -5 -9 -5 -22 0 -30 4 -7 4 -24 0 -36 -6
-14 -5 -26 0 -29 6 -3 6 -15 0 -30 -5 -14 -5 -27 0 -30 5 -3 5 -18 0 -35 -5
-17 -5 -30 0 -30 5 0 5 -13 0 -30 -5 -17 -5 -30 0 -30 5 0 5 -13 0 -30 -5 -16
-6 -30 -2 -30 8 0 7 -68 -1 -76 -3 -3 -2 -17 3 -30 6 -14 6 -26 -1 -29 -5 -4
-7 -11 -3 -16 8 -13 9 -97 2 -104 -3 -4 -2 -20 2 -36 5 -16 6 -29 2 -29 -8 0
-7 -68 1 -76 3 -3 2 -16 -3 -28 -4 -13 -4 -29 0 -36 5 -8 6 -19 3 -24 -8 -13
-7 -102 2 -116 3 -5 2 -10 -4 -10 -6 0 -6 -11 -1 -30 5 -17 5 -30 0 -30 -5 0
-5 -13 0 -30 5 -17 5 -30 0 -30 -5 0 -5 -13 0 -30 5 -17 5 -30 0 -30 -5 0 -5
-13 0 -30 5 -17 5 -30 0 -30 -5 0 -5 -13 0 -30 5 -17 5 -30 0 -30 -5 0 -5 -13
0 -30 5 -17 5 -30 0 -30 -5 0 -5 -13 0 -30 5 -17 5 -30 0 -30 -5 0 -5 -13 0
-30 5 -19 5 -30 -1 -30 -6 0 -7 -4 -4 -10 8 -13 11 -108 3 -115 -3 -4 -2 -20
2 -36 5 -16 6 -29 2 -29 -8 0 -7 -68 1 -76 3 -3 2 -16 -3 -28 -4 -13 -4 -29 0
-36 5 -8 6 -18 3 -23 -8 -12 -7 -106 0 -114 4 -3 2 -13 -3 -22 -5 -10 -5 -23
0 -31 4 -7 4 -24 0 -36 -6 -14 -5 -26 0 -29 6 -3 6 -15 0 -30 -5 -14 -5 -27 0
-30 5 -3 5 -18 0 -35 -5 -17 -5 -30 0 -30 5 0 5 -13 0 -30 -5 -17 -5 -30 0
-30 5 0 5 -13 0 -30 -5 -16 -6 -30 -2 -30 8 0 7 -68 -1 -76 -3 -3 -2 -17 3
-30 6 -14 6 -26 0 -29 -5 -3 -6 -16 -1 -28 4 -12 5 -33 1 -47 -4 -14 -3 -37 1
-52 4 -16 5 -28 1 -28 -4 0 -7 -29 -7 -65 0 -36 3 -65 7 -65 4 0 3 -13 -2 -30
-5 -17 -5 -30 0 -30 5 0 5 -13 0 -30 -5 -17 -5 -30 0 -30 5 0 5 -13 0 -29 -4
-15 -4 -34 0 -42 5 -7 5 -20 0 -29 -5 -9 -5 -22 0 -30 5 -8 5 -21 0 -30 -5 -9
-5 -22 0 -30 5 -8 5 -21 0 -30 -5 -9 -5 -22 -1 -29 5 -7 5 -29 1 -49 -3 -21
-3 -49 1 -65 4 -15 4 -27 1 -27 -4 0 -7 -29 -7 -65 0 -36 3 -65 7 -65 4 0 3
-13 -2 -30 -5 -19 -5 -30 1 -30 6 0 8 -4 4 -10 -5 -9 -9 -104 -5 -125 1 -5 2
-17 1 -26 -1 -9 6 -18 16 -20 15 -4 1362 -3 1385 0 4 1 7 715 8 1589 0 873 2
1603 5 1622 4 40 7 51 29 136 9 33 26 83 38 110 12 27 22 51 23 54 0 3 20 39
45 80 85 141 259 290 380 325 3 1 12 4 20 8 149 58 383 64 527 13 23 -8 44
-12 47 -9 3 4 6 0 6 -7 0 -7 3 -11 6 -7 15 15 200 -108 256 -171 74 -84 163
-242 174 -310 3 -15 7 -34 10 -42 7 -19 12 -44 18 -95 6 -50 9 -395 3 -401 -2
-2 -1 -23 2 -47 3 -23 4 -71 1 -107 -3 -36 -2 -80 1 -97 4 -19 3 -33 -3 -33
-5 0 -6 -5 -3 -10 4 -6 6 -50 5 -98 -1 -101 -1 -100 0 -211 0 -46 -2 -86 -4
-88 -2 -2 0 -20 4 -39 5 -20 4 -34 -2 -34 -5 0 -6 -5 -3 -10 4 -6 6 -50 5 -98
-1 -101 -1 -100 0 -211 0 -46 -2 -86 -4 -88 -2 -2 0 -20 4 -39 5 -20 4 -34 -2
-34 -5 0 -6 -5 -3 -10 4 -6 6 -50 5 -98 -1 -101 -1 -100 0 -211 0 -46 -2 -86
-4 -88 -2 -2 0 -20 4 -39 4 -18 4 -34 -1 -34 -4 0 -6 -6 -4 -12 9 -25 12 -78
5 -78 -5 0 -6 -8 -4 -17 7 -31 9 -143 2 -143 -3 0 -4 -8 -2 -17 7 -31 9 -143
2 -143 -3 0 -4 -8 -2 -17 7 -31 9 -143 2 -143 -3 0 -4 -8 -2 -17 7 -31 9 -143
2 -143 -3 0 -4 -8 -2 -17 8 -35 9 -143 1 -143 -5 0 -5 -4 -2 -10 6 -9 10 -173
5 -195 -1 -5 -2 -26 -1 -45 l1 -35 672 2 c370 0 678 1 683 2 11 1 12 3287 1
3436 -3 44 -8 109 -10 145 -5 63 -12 129 -22 200 -3 19 -7 51 -10 70 -2 19 -6
42 -9 50 -2 8 -7 29 -10 45 -9 55 -14 73 -36 152 -25 92 -98 262 -140 327 -16
26 -29 49 -29 51 0 3 -16 26 -36 52 -20 27 -45 61 -57 77 -25 32 -136 146
-186 189 -65 56 -198 141 -304 193 -59 29 -111 53 -115 54 -4 0 -34 9 -68 20
-33 11 -71 23 -85 26 -83 20 -173 35 -234 40 -64 6 -314 12 -318 8z"/>
<path d="M16767 12363 c-3 -2 -31 -6 -63 -9 -32 -2 -72 -7 -89 -11 -16 -3 -39
-7 -50 -8 -11 -2 -20 -4 -20 -5 0 -2 -29 -9 -60 -14 -32 -6 -157 -46 -190 -61
-16 -7 -50 -21 -75 -31 -25 -9 -57 -26 -72 -36 -16 -11 -28 -16 -28 -12 0 4
-8 1 -17 -7 -10 -8 -35 -24 -56 -34 -58 -30 -189 -130 -287 -219 -67 -61 -66
-56 -21 -143 55 -105 83 -174 110 -263 13 -41 26 -82 29 -90 7 -19 6 -17 16
-65 4 -22 10 -51 13 -65 7 -32 8 -40 17 -126 l8 -71 47 25 c58 31 162 68 221
78 53 9 267 9 325 0 32 -5 79 -17 125 -31 3 -1 16 -6 30 -12 14 -6 28 -11 32
-12 14 -3 106 -56 139 -81 43 -32 129 -118 149 -149 8 -13 23 -33 32 -45 18
-24 56 -105 82 -176 42 -115 42 -111 42 -1822 -1 -1084 2 -1639 9 -1641 9 -2
1346 -1 1385 2 13 1 15 29 13 193 0 106 -2 218 -3 248 -1 30 -1 60 0 65 2 13
2 289 -1 301 -1 5 0 14 1 19 2 12 2 288 -1 301 -1 5 0 14 1 19 2 12 2 288 -1
301 -1 5 -1 14 0 19 3 14 3 578 1 590 -1 6 -2 15 -1 20 3 14 3 448 1 460 -1 6
-2 15 0 20 2 12 2 478 -1 491 -1 5 -1 14 0 19 5 24 2 367 -3 372 -2 3 -1 15 4
28 5 13 6 26 3 29 -3 3 -7 34 -9 68 -3 74 -13 175 -20 203 -2 11 -6 34 -8 50
-21 150 -81 344 -152 494 -26 53 -50 98 -55 99 -5 2 -9 9 -9 16 0 7 -22 43
-50 80 -27 37 -50 69 -50 72 0 3 -44 49 -97 103 -108 108 -189 172 -308 243
-72 43 -264 129 -320 143 -5 1 -17 5 -25 8 -24 9 -141 35 -187 42 -23 3 -57 8
-75 11 -38 6 -426 13 -431 7z"/>
<path d="M20275 8722 c-1 -2 -29 -5 -61 -8 -55 -5 -117 -22 -174 -46 -52 -21
-116 -54 -136 -68 -12 -8 -32 -22 -44 -30 -83 -57 -199 -191 -247 -285 -26
-52 -60 -158 -69 -215 -4 -25 -7 -94 -7 -155 2 -217 74 -388 227 -541 97 -97
232 -178 340 -205 22 -5 52 -12 66 -16 34 -9 246 -10 295 -1 307 52 570 302
642 610 10 40 11 291 1 335 -17 86 -78 223 -121 274 -10 11 -17 23 -17 27 0 7
-155 158 -182 177 -49 34 -168 98 -168 90 0 -3 -13 1 -29 9 -29 15 -78 28
-156 41 -43 7 -155 12 -160 7z"/>
</g>
</svg>
