<?xml version="1.0" standalone="no"?>
<!DOCTYPE svg PUBLIC "-//W3C//DTD SVG 20010904//EN"
 "http://www.w3.org/TR/2001/REC-SVG-20010904/DTD/svg10.dtd">
<svg version="1.0" xmlns="http://www.w3.org/2000/svg"
 width="354.000000pt" height="354.000000pt" viewBox="0 0 354.000000 354.000000"
 preserveAspectRatio="xMidYMid meet">
<metadata>
Created by potrace 1.11, written by Peter Selinger 2001-2013
</metadata>
<g transform="translate(0.000000,354.000000) scale(0.100000,-0.100000)"
fill="#000000" stroke="none">
<path d="M660 2118 c0 -201 0 -203 -18 -173 -27 43 -84 91 -128 105 -53 18
-169 8 -221 -18 -90 -46 -150 -125 -179 -236 -16 -60 -18 -241 -3 -306 15 -66
55 -140 101 -187 117 -120 321 -117 415 6 l33 43 0 -61 0 -61 115 0 115 0 0
545 0 545 -115 0 -115 0 0 -202z m-90 -267 c23 -12 44 -36 60 -67 21 -41 25
-62 25 -139 0 -157 -52 -239 -154 -239 -66 0 -106 27 -139 93 -22 47 -26 68
-26 141 0 71 4 94 24 135 44 88 130 119 210 76z"/>
<path d="M1231 2039 c-52 -17 -76 -32 -122 -78 -38 -38 -61 -72 -70 -99 -7
-23 -10 -44 -8 -47 3 -2 50 -9 105 -14 85 -8 100 -7 109 6 31 47 50 64 87 74
84 22 158 -17 158 -84 0 -19 -7 -40 -15 -47 -8 -7 -71 -20 -140 -30 -151 -22
-209 -40 -259 -82 -51 -42 -76 -98 -76 -174 0 -112 37 -176 127 -221 49 -23
71 -28 138 -28 101 0 143 15 200 70 l45 44 0 -49 0 -50 110 0 110 0 0 293 c0
319 -5 357 -54 422 -78 102 -283 145 -445 94z m222 -581 c-28 -48 -66 -71
-126 -76 -91 -7 -134 29 -125 103 5 43 46 66 160 89 l103 21 3 -53 c2 -38 -2
-62 -15 -84z"/>
<path d="M2215 2042 c-40 -19 -92 -69 -113 -107 -9 -16 -11 -7 -12 48 l0 67
-110 0 -110 0 0 -410 0 -410 115 0 114 0 3 274 c3 259 4 276 24 303 11 15 37
36 57 46 50 25 110 9 137 -36 19 -30 20 -52 20 -309 l0 -278 115 0 115 0 0
293 c0 320 -8 381 -56 445 -47 61 -96 85 -182 89 -61 3 -85 0 -117 -15z"/>
<path d="M2682 2047 c-51 -19 -105 -66 -96 -85 4 -10 12 -37 19 -62 10 -35 17
-44 31 -42 61 9 95 5 121 -14 51 -38 53 -49 53 -341 l0 -273 116 0 115 0 -3
328 c-3 314 -4 329 -25 368 -29 54 -93 110 -140 123 -49 14 -149 13 -191 -2z"/>
<path d="M3232 1436 c-34 -32 -37 -38 -37 -91 0 -53 3 -59 37 -91 31 -28 46
-34 81 -34 123 0 179 146 86 224 -24 20 -41 26 -80 26 -42 0 -55 -5 -87 -34z"/>
</g>
</svg>
